HIERARCHY
ROOT ui
{
	 OFFSET 0 0 0
	 CHANNELS 3 XPosition YPosition Z Position
	 EndSite
	 {
	 OFFSET 0 -1 0
	 }
}
ROOT li
{
	 OFFSET 0 0 0
	 CHANNELS 3 XPosition YPosition Z Position
	 EndSite
	 {
	 OFFSET 0 -1 0
	 }
}
ROOT ul
{
	 OFFSET 0 0 0
	 CHANNELS 3 XPosition YPosition Z Position
	 EndSite
	 {
	 OFFSET 0 -1 0
	 }
}
ROOT ll
{
	 OFFSET 0 0 0
	 CHANNELS 3 XPosition YPosition Z Position
	 EndSite
	 {
	 OFFSET 0 -1 0
	 }
}
ROOT tt
{
	 OFFSET 0 0 0
	 CHANNELS 3 XPosition YPosition Z Position
	 EndSite
	 {
	 OFFSET 0 -1 0
	 }
}
ROOT tb
{
	 OFFSET 0 0 0
	 CHANNELS 3 XPosition YPosition Z Position
	 EndSite
	 {
	 OFFSET 0 -1 0
	 }
}
ROOT td
{
	 OFFSET 0 0 0
	 CHANNELS 3 XPosition YPosition Z Position
	 EndSite
	 {
	 OFFSET 0 -1 0
	 }
}
ROOT v
{
	 OFFSET 0 0 0
	 CHANNELS 3 XPosition YPosition Z Position
	 EndSite
	 {
	 OFFSET 0 -1 0
	 }
}
ROOT bn
{
	 OFFSET 0 0 0
	 CHANNELS 3 XPosition YPosition Z Position
	 EndSite
	 {
	 OFFSET 0 -1 0
	 }
}
MOTION
Frames: 13
Frame Time: 0.002
2.3752500116825103E-4	-8.117999881505967E-6	0		0.46349017333984377	-2.400079345703125	0		-1.089178955078125	-0.06567161560058593	0		-0.7442156372070312	-2.319508056640625	0		1.47834130859375	-0.6507294311523437	0		3.029250732421875	-0.02758837890625	0		4.4499169921875	0.10189921569824219	0		5.451986328125	-0.010836941719055176	0		-0.16031044006347656	5.9150224609375	0		
-0.08878297424316406	0.00818526554107666	0		0.43837899780273437	-2.398077392578125	0		-1.087345703125	-0.0661824493408203	0		-0.7444249877929687	-2.32297900390625	0		1.5191524658203126	-0.6529534912109375	0		3.0470810546875	-0.02837423324584961	0		4.44761962890625	0.0944962158203125	0		5.4497265625	-0.01623452377319336	0		-0.1585115966796875	5.91451708984375	0		
8.20272982120514E-4	-0.003946403980255127	0		0.47804190063476565	-2.407273193359375	0		-1.1184595947265625	-0.062063571929931644	0		-0.7307206420898438	-2.3296962890625	0		1.4620091552734376	-0.650334228515625	0		3.038757568359375	-0.03565937042236328	0		4.44327587890625	0.0861445083618164	0		5.44149658203125	-0.018506935119628906	0		-0.15673977661132812	5.91402587890625	0		
-0.08118202209472657	0.010149868965148925	0		0.45487472534179685	-2.403273681640625	0		-1.112644775390625	-0.058614101409912106	0		-0.7248746337890625	-2.325244873046875	0		1.4975606689453125	-0.6614277954101563	0		3.066624267578125	-0.029597888946533202	0		4.46014404296875	0.09241905212402343	0		5.462177734375	-0.02229975128173828	0		-0.14084796142578124	5.92329296875	0		
-0.0025650689601898194	0.007271529197692871	0		0.4736456298828125	-2.398031005859375	0		-1.0750203857421874	-0.06073308563232422	0		-0.723213134765625	-2.3256904296875	0		1.4992132568359375	-0.6618613891601562	0		3.046240234375	-0.0316123104095459	0		4.45079443359375	0.09220653533935547	0		5.44322216796875	-0.0013240079879760743	0		-0.13923060607910157	5.9228505859375	0		
-0.06816136932373047	1.1307699978351593E-4	0		0.4830108337402344	-2.408585693359375	0		-1.0775340576171875	-0.06407268524169922	0		-0.6897965087890625	-2.333698974609375	0		1.5289581298828125	-0.6517875366210938	0		3.073907470703125	-0.025492845535278322	0		4.46333349609375	0.09161389923095703	0		5.46474169921875	-0.003079430103302002	0		-0.137718505859375	5.9224404296875	0		
-0.0026524949073791506	0.0035447940826416014	0		0.4735613098144531	-2.402753173828125	0		-1.0791810302734375	-0.06839424896240234	0		-0.7362025756835937	-2.325181884765625	0		1.4883575439453125	-0.6533715209960937	0		3.064205810546875	-0.03264760589599609	0		4.447912109375	0.09957413482666015	0		5.46685107421875	-0.020446357727050782	0		-0.15050018310546875	5.9123291015625	0		
0.001716385006904602	0.006152778148651123	0		0.4588096923828125	-2.40678857421875	0		-1.0707381591796874	-0.06186453247070312	0		-0.72299658203125	-2.3317421875	0		1.503502685546875	-0.6629623413085938	0		3.072555419921875	-0.031105480194091796	0		4.461943359375	0.0840112075805664	0		5.46335205078125	-0.010675203323364258	0		-0.1492031707763672	5.9119931640625	0		
0.012752537727355956	-0.00332768988609314	0		0.464110107421875	-2.4021591796875	0		-1.1384271240234376	-0.055875640869140625	0		-0.7536527099609375	-2.324443115234375	0		1.4908604736328126	-0.6549969482421875	0		3.056596435546875	-0.040079769134521485	0		4.4562802734375	0.09084899139404297	0		5.45452197265625	-0.01277900791168213	0		-0.26622479248046876	5.9008994140625	0		
0.011154828071594238	0.012470752716064452	0		0.4921500244140625	-2.405917236328125	0		-1.0643551025390625	-0.05848978805541992	0		-0.6806577758789063	-2.331038330078125	0		1.5088856201171874	-0.6595697021484375	0		3.108008056640625	-0.02427332305908203	0		4.4724931640625	0.09630818939208985	0		5.484564453125	-0.01658047294616699	0		-0.12976473999023438	5.91812451171875	0		
0.005030354976654053	0.0053886518478393555	0		0.455321533203125	-2.396425537109375	0		-1.1033994140625	-0.06095377349853515	0		-0.729521240234375	-2.32331884765625	0		1.49605859375	-0.6505288696289062	0		3.0538359375	-0.03346977996826172	0		4.46938720703125	0.09015564727783203	0		5.4707958984375	-0.004534275054931641	0		-0.14586851501464843	5.9112294921875	0		
-0.06119873428344726	-0.0015346310138702392	0		0.4801209106445313	-2.402049072265625	0		-1.070571533203125	-0.06571892547607422	0		-0.7208306274414062	-2.334636962890625	0		1.4969638671875	-0.6507105102539062	0		3.060780517578125	-0.03177120780944824	0		4.46616650390625	0.08303543090820313	0		5.46757421875	-0.011659353256225587	0		-0.1449313507080078	5.9110556640625	0		
0.0037002189159393312	0.002133307933807373	0		0.4549834594726562	-2.398704833984375	0		-1.1016749267578125	-0.06125341033935547	0		-0.7200281982421874	-2.33477001953125	0		1.5085322265625	-0.6640601196289062	0		3.06042919921875	-0.04090726470947265	0		4.4669833984375	0.0828705062866211	0		5.47320361328125	-0.0219219970703125	0		-0.1440781707763672	5.9109189453125	0		
